<mxfile host="app.diagrams.net" agent="Mozilla/5.0 (Windows NT 10.0; Win64; x64) AppleWebKit/537.36 (KHTML, like Gecko) Chrome/134.0.0.0 Safari/537.36" version="26.1.1">
  <diagram name="第 1 页" id="pIXlrWzkdp4X08Szqg9B">
    <mxGraphModel dx="1434" dy="738" grid="1" gridSize="10" guides="1" tooltips="1" connect="1" arrows="1" fold="1" page="1" pageScale="1" pageWidth="827" pageHeight="1169" math="0" shadow="0">
      <root>
        <mxCell id="0" />
        <mxCell id="1" parent="0" />
        <mxCell id="617NdSPrLGzGlT80jnlj-1" value="输入一个数字" style="rounded=0;whiteSpace=wrap;html=1;" vertex="1" parent="1">
          <mxGeometry x="330" y="60" width="120" height="50" as="geometry" />
        </mxCell>
        <mxCell id="617NdSPrLGzGlT80jnlj-5" style="edgeStyle=orthogonalEdgeStyle;rounded=0;orthogonalLoop=1;jettySize=auto;html=1;exitX=0;exitY=0.5;exitDx=0;exitDy=0;" edge="1" parent="1" source="617NdSPrLGzGlT80jnlj-2" target="617NdSPrLGzGlT80jnlj-3">
          <mxGeometry relative="1" as="geometry" />
        </mxCell>
        <mxCell id="617NdSPrLGzGlT80jnlj-6" style="edgeStyle=orthogonalEdgeStyle;rounded=0;orthogonalLoop=1;jettySize=auto;html=1;exitX=1;exitY=0.5;exitDx=0;exitDy=0;" edge="1" parent="1" source="617NdSPrLGzGlT80jnlj-2" target="617NdSPrLGzGlT80jnlj-4">
          <mxGeometry relative="1" as="geometry" />
        </mxCell>
        <mxCell id="617NdSPrLGzGlT80jnlj-2" value="num%2=0" style="rhombus;whiteSpace=wrap;html=1;" vertex="1" parent="1">
          <mxGeometry x="350" y="490" width="80" height="80" as="geometry" />
        </mxCell>
        <mxCell id="617NdSPrLGzGlT80jnlj-3" value="双数" style="rounded=0;whiteSpace=wrap;html=1;" vertex="1" parent="1">
          <mxGeometry x="170" y="720" width="120" height="60" as="geometry" />
        </mxCell>
        <mxCell id="617NdSPrLGzGlT80jnlj-4" value="单数" style="rounded=0;whiteSpace=wrap;html=1;" vertex="1" parent="1">
          <mxGeometry x="510" y="710" width="120" height="60" as="geometry" />
        </mxCell>
        <mxCell id="617NdSPrLGzGlT80jnlj-7" style="edgeStyle=orthogonalEdgeStyle;rounded=0;orthogonalLoop=1;jettySize=auto;html=1;entryX=0.5;entryY=0.088;entryDx=0;entryDy=0;entryPerimeter=0;" edge="1" parent="1" source="617NdSPrLGzGlT80jnlj-1" target="617NdSPrLGzGlT80jnlj-2">
          <mxGeometry relative="1" as="geometry" />
        </mxCell>
        <mxCell id="617NdSPrLGzGlT80jnlj-10" value="输入数字不合法" style="edgeStyle=orthogonalEdgeStyle;rounded=0;orthogonalLoop=1;jettySize=auto;html=1;exitX=1;exitY=0.5;exitDx=0;exitDy=0;entryX=1;entryY=0.5;entryDx=0;entryDy=0;" edge="1" parent="1" source="617NdSPrLGzGlT80jnlj-9" target="617NdSPrLGzGlT80jnlj-1">
          <mxGeometry relative="1" as="geometry">
            <mxPoint x="680" y="120" as="targetPoint" />
            <Array as="points">
              <mxPoint x="670" y="260" />
              <mxPoint x="670" y="85" />
            </Array>
          </mxGeometry>
        </mxCell>
        <mxCell id="617NdSPrLGzGlT80jnlj-9" value="num is number" style="rhombus;whiteSpace=wrap;html=1;" vertex="1" parent="1">
          <mxGeometry x="350" y="220" width="80" height="80" as="geometry" />
        </mxCell>
      </root>
    </mxGraphModel>
  </diagram>
</mxfile>
